solid OpenSCAD_Model
  facet normal 0 0 -1
    outer loop
      vertex -22.5623 6.19956e-16 2
      vertex -22.3146 1.56435 2
      vertex -22.3146 -1.56434 2
    endloop
  endfacet
  facet normal 0 0 -1
    outer loop
      vertex -22.3146 -1.56434 2
      vertex -22.3146 1.56435 2
      vertex -21.5955 2.97556 2
    endloop
  endfacet
  facet normal 0 0 -1
    outer loop
      vertex -22.3146 -1.56434 2
      vertex -21.5955 2.97556 2
      vertex -20.4756 4.09551 2
    endloop
  endfacet
  facet normal 0 0 -1
    outer loop
      vertex -22.3146 -1.56434 2
      vertex -20.4756 4.09551 2
      vertex -8.14916 12.0191 2
    endloop
  endfacet
  facet normal 0 0 -1
    outer loop
      vertex -22.3146 -1.56434 2
      vertex -8.14916 12.0191 2
      vertex -6.8019 12.8297 2
    endloop
  endfacet
  facet normal 0 0 -1
    outer loop
      vertex -22.3146 -1.56434 2
      vertex -6.8019 12.8297 2
      vertex -5.37489 13.4899 2
    endloop
  endfacet
  facet normal 0 0 -1
    outer loop
      vertex -22.3146 -1.56434 2
      vertex -5.37489 13.4899 2
      vertex -3.88486 13.992 2
    endloop
  endfacet
  facet normal 0 0 -1
    outer loop
      vertex -18.4238 1.6 2
      vertex -3.88486 13.992 2
      vertex -2.34928 14.33 2
    endloop
  endfacet
  facet normal 0 0 -1
    outer loop
      vertex -6.25 10.8253 2
      vertex -2.34928 14.33 2
      vertex -0.786167 14.5 2
    endloop
  endfacet
  facet normal 0 0 -1
    outer loop
      vertex -3.86271 11.8882 2
      vertex -0.786167 14.5 2
      vertex 0.786167 14.5 2
    endloop
  endfacet
  facet normal 0 0 -1
    outer loop
      vertex -1.30661 12.4315 2
      vertex 0.786167 14.5 2
      vertex 2.34928 14.33 2
    endloop
  endfacet
  facet normal 0 0 -1
    outer loop
      vertex -1.30661 12.4315 2
      vertex 3.88486 13.992 2
      vertex 1.30661 12.4315 2
    endloop
  endfacet
  facet normal 0 0 -1
    outer loop
      vertex 3.86271 11.8882 2
      vertex 5.37489 13.4899 2
      vertex 6.8019 12.8297 2
    endloop
  endfacet
  facet normal 0 0 -1
    outer loop
      vertex 11.4193 5.08421 2
      vertex 8.14916 12.0191 2
      vertex 20.4756 4.09551 2
    endloop
  endfacet
  facet normal 0 0 -1
    outer loop
      vertex 12.2268 2.5989 2
      vertex 20.4756 4.09551 2
      vertex 21.5955 2.97556 2
    endloop
  endfacet
  facet normal 0 0 -1
    outer loop
      vertex 18.4238 1.6 2
      vertex 21.5955 2.97556 2
      vertex 22.3146 1.56434 2
    endloop
  endfacet
  facet normal 0 0 -1
    outer loop
      vertex 12.2268 -2.5989 2
      vertex 22.3146 -1.56435 2
      vertex 21.5955 -2.97556 2
    endloop
  endfacet
  facet normal 0 0 -1
    outer loop
      vertex 6.25 -10.8253 2
      vertex 20.4756 -4.09551 2
      vertex 8.14916 -12.0191 2
    endloop
  endfacet
  facet normal 0 0 -1
    outer loop
      vertex 3.86271 -11.8882 2
      vertex 6.8019 -12.8297 2
      vertex 5.37489 -13.4899 2
    endloop
  endfacet
  facet normal 0 0 -1
    outer loop
      vertex 1.30661 -12.4315 2
      vertex 5.37489 -13.4899 2
      vertex 3.88486 -13.992 2
    endloop
  endfacet
  facet normal 0 0 -1
    outer loop
      vertex -1.30661 -12.4315 2
      vertex 3.88486 -13.992 2
      vertex 2.34928 -14.33 2
    endloop
  endfacet
  facet normal 0 0 -1
    outer loop
      vertex -6.25 -10.8253 2
      vertex 0.786167 -14.5 2
      vertex -0.786167 -14.5 2
    endloop
  endfacet
  facet normal 0 0 -1
    outer loop
      vertex -22.3146 -1.56434 2
      vertex -0.786167 -14.5 2
      vertex -2.34928 -14.33 2
    endloop
  endfacet
  facet normal 0 0 -1
    outer loop
      vertex -22.3146 -1.56434 2
      vertex -2.34928 -14.33 2
      vertex -3.88486 -13.992 2
    endloop
  endfacet
  facet normal 0 0 -1
    outer loop
      vertex -22.3146 -1.56434 2
      vertex -3.88486 -13.992 2
      vertex -5.37489 -13.4899 2
    endloop
  endfacet
  facet normal 0 0 -1
    outer loop
      vertex -22.3146 -1.56434 2
      vertex -5.37489 -13.4899 2
      vertex -6.8019 -12.8297 2
    endloop
  endfacet
  facet normal 0 0 -1
    outer loop
      vertex -22.3146 -1.56434 2
      vertex -6.8019 -12.8297 2
      vertex -8.14916 -12.0191 2
    endloop
  endfacet
  facet normal 0 0 -1
    outer loop
      vertex -22.3146 -1.56434 2
      vertex -8.14916 -12.0191 2
      vertex -20.4756 -4.09551 2
    endloop
  endfacet
  facet normal 0 0 -1
    outer loop
      vertex -22.3146 -1.56434 2
      vertex -20.4756 -4.09551 2
      vertex -21.5955 -2.97556 2
    endloop
  endfacet
  facet normal 0 0 -1
    outer loop
      vertex -18.4238 -1.6 2
      vertex -22.3146 -1.56434 2
      vertex -19.3475 2.26256e-16 2
    endloop
  endfacet
  facet normal 0 0 -1
    outer loop
      vertex 1.30661 12.4315 2
      vertex 5.37489 13.4899 2
      vertex 3.86271 11.8882 2
    endloop
  endfacet
  facet normal 0 0 -1
    outer loop
      vertex 6.25 -10.8253 2
      vertex 8.14916 -12.0191 2
      vertex 6.8019 -12.8297 2
    endloop
  endfacet
  facet normal 0 0 -1
    outer loop
      vertex 19.3475 -2.26256e-16 2
      vertex 22.5623 -6.19956e-16 2
      vertex 22.3146 -1.56435 2
    endloop
  endfacet
  facet normal 0 0 -1
    outer loop
      vertex -12.2268 -2.5989 2
      vertex -22.3146 -1.56434 2
      vertex -18.4238 -1.6 2
    endloop
  endfacet
  facet normal 0 0 -1
    outer loop
      vertex -1.30661 12.4315 2
      vertex 2.34928 14.33 2
      vertex 3.88486 13.992 2
    endloop
  endfacet
  facet normal 0 0 -1
    outer loop
      vertex -22.3146 -1.56434 2
      vertex -3.88486 13.992 2
      vertex -18.4238 1.6 2
    endloop
  endfacet
  facet normal 0 0 -1
    outer loop
      vertex 1.30661 12.4315 2
      vertex 3.88486 13.992 2
      vertex 5.37489 13.4899 2
    endloop
  endfacet
  facet normal 0 0 -1
    outer loop
      vertex 19.3475 -2.26256e-16 2
      vertex 22.3146 -1.56435 2
      vertex 18.4238 -1.6 2
    endloop
  endfacet
  facet normal 0 0 -1
    outer loop
      vertex -10.1127 -7.34732 2
      vertex -22.3146 -1.56434 2
      vertex -11.4193 -5.08421 2
    endloop
  endfacet
  facet normal 0 0 -1
    outer loop
      vertex -22.3146 -1.56434 2
      vertex -12.2268 -2.5989 2
      vertex -11.4193 -5.08421 2
    endloop
  endfacet
  facet normal 0 0 -1
    outer loop
      vertex -8.36413 -9.28931 2
      vertex -22.3146 -1.56434 2
      vertex -10.1127 -7.34732 2
    endloop
  endfacet
  facet normal 0 0 -1
    outer loop
      vertex -6.25 -10.8253 2
      vertex -22.3146 -1.56434 2
      vertex -8.36413 -9.28931 2
    endloop
  endfacet
  facet normal 0 0 -1
    outer loop
      vertex -1.30661 -12.4315 2
      vertex 2.34928 -14.33 2
      vertex 0.786167 -14.5 2
    endloop
  endfacet
  facet normal 0 0 -1
    outer loop
      vertex -22.3146 -1.56434 2
      vertex -6.25 -10.8253 2
      vertex -0.786167 -14.5 2
    endloop
  endfacet
  facet normal 0 0 -1
    outer loop
      vertex -1.30661 -12.4315 2
      vertex 0.786167 -14.5 2
      vertex -3.86271 -11.8882 2
    endloop
  endfacet
  facet normal 0 0 -1
    outer loop
      vertex -3.86271 -11.8882 2
      vertex 0.786167 -14.5 2
      vertex -6.25 -10.8253 2
    endloop
  endfacet
  facet normal 0 0 -1
    outer loop
      vertex 3.86271 -11.8882 2
      vertex 5.37489 -13.4899 2
      vertex 1.30661 -12.4315 2
    endloop
  endfacet
  facet normal 0 0 -1
    outer loop
      vertex 1.30661 -12.4315 2
      vertex 3.88486 -13.992 2
      vertex -1.30661 -12.4315 2
    endloop
  endfacet
  facet normal 0 0 -1
    outer loop
      vertex 8.36413 -9.28931 2
      vertex 20.4756 -4.09551 2
      vertex 6.25 -10.8253 2
    endloop
  endfacet
  facet normal 0 0 -1
    outer loop
      vertex 12.2268 -2.5989 2
      vertex 20.4756 -4.09551 2
      vertex 11.4193 -5.08421 2
    endloop
  endfacet
  facet normal 0 0 -1
    outer loop
      vertex 10.1127 -7.34732 2
      vertex 20.4756 -4.09551 2
      vertex 8.36413 -9.28931 2
    endloop
  endfacet
  facet normal 0 0 -1
    outer loop
      vertex 11.4193 -5.08421 2
      vertex 20.4756 -4.09551 2
      vertex 10.1127 -7.34732 2
    endloop
  endfacet
  facet normal 0 0 -1
    outer loop
      vertex 12.5 0 2
      vertex 16.5762 -1.6 2
      vertex 12.2268 -2.5989 2
    endloop
  endfacet
  facet normal 0 0 -1
    outer loop
      vertex 18.4238 -1.6 2
      vertex 22.3146 -1.56435 2
      vertex 12.2268 -2.5989 2
    endloop
  endfacet
  facet normal 0 0 -1
    outer loop
      vertex 6.25 -10.8253 2
      vertex 6.8019 -12.8297 2
      vertex 3.86271 -11.8882 2
    endloop
  endfacet
  facet normal 0 0 -1
    outer loop
      vertex 18.4238 1.6 2
      vertex 22.3146 1.56434 2
      vertex 19.3475 -2.26256e-16 2
    endloop
  endfacet
  facet normal 0 0 -1
    outer loop
      vertex 12.2268 -2.5989 2
      vertex 21.5955 -2.97556 2
      vertex 20.4756 -4.09551 2
    endloop
  endfacet
  facet normal 0 0 -1
    outer loop
      vertex 12.2268 2.5989 2
      vertex 16.5762 1.6 2
      vertex 12.5 0 2
    endloop
  endfacet
  facet normal 0 0 -1
    outer loop
      vertex 10.1127 7.34732 2
      vertex 8.14916 12.0191 2
      vertex 11.4193 5.08421 2
    endloop
  endfacet
  facet normal 0 0 -1
    outer loop
      vertex -12.2268 -2.5989 2
      vertex -18.4238 -1.6 2
      vertex -16.5762 -1.6 2
    endloop
  endfacet
  facet normal 0 0 -1
    outer loop
      vertex 8.36413 9.28931 2
      vertex 8.14916 12.0191 2
      vertex 10.1127 7.34732 2
    endloop
  endfacet
  facet normal 0 0 -1
    outer loop
      vertex -12.2268 -2.5989 2
      vertex -16.5762 -1.6 2
      vertex -15.6525 -2.26256e-16 2
    endloop
  endfacet
  facet normal 0 0 -1
    outer loop
      vertex 6.25 10.8253 2
      vertex 8.14916 12.0191 2
      vertex 8.36413 9.28931 2
    endloop
  endfacet
  facet normal 0 0 -1
    outer loop
      vertex -12.2268 -2.5989 2
      vertex -15.6525 -2.26256e-16 2
      vertex -12.5 0 2
    endloop
  endfacet
  facet normal 0 0 -1
    outer loop
      vertex 12.2268 2.5989 2
      vertex 21.5955 2.97556 2
      vertex 16.5762 1.6 2
    endloop
  endfacet
  facet normal 0 0 -1
    outer loop
      vertex 3.86271 11.8882 2
      vertex 6.8019 12.8297 2
      vertex 8.14916 12.0191 2
    endloop
  endfacet
  facet normal 0 0 -1
    outer loop
      vertex -8.36413 9.28931 2
      vertex -2.34928 14.33 2
      vertex -6.25 10.8253 2
    endloop
  endfacet
  facet normal 0 0 -1
    outer loop
      vertex -12.2268 2.5989 2
      vertex -16.5762 1.6 2
      vertex -11.4193 5.08421 2
    endloop
  endfacet
  facet normal 0 0 -1
    outer loop
      vertex 11.4193 5.08421 2
      vertex 20.4756 4.09551 2
      vertex 12.2268 2.5989 2
    endloop
  endfacet
  facet normal 0 0 -1
    outer loop
      vertex 15.6525 2.26256e-16 2
      vertex 12.5 0 2
      vertex 16.5762 1.6 2
    endloop
  endfacet
  facet normal 0 0 -1
    outer loop
      vertex 16.5762 -1.6 2
      vertex 12.5 0 2
      vertex 15.6525 2.26256e-16 2
    endloop
  endfacet
  facet normal 0 0 -1
    outer loop
      vertex 19.3475 -2.26256e-16 2
      vertex 22.3146 1.56434 2
      vertex 22.5623 -6.19956e-16 2
    endloop
  endfacet
  facet normal 0 0 -1
    outer loop
      vertex 16.5762 -1.6 2
      vertex 18.4238 -1.6 2
      vertex 12.2268 -2.5989 2
    endloop
  endfacet
  facet normal 0 0 -1
    outer loop
      vertex 16.5762 1.6 2
      vertex 21.5955 2.97556 2
      vertex 18.4238 1.6 2
    endloop
  endfacet
  facet normal 0 0 -1
    outer loop
      vertex -16.5762 1.6 2
      vertex -12.2268 2.5989 2
      vertex -15.6525 -2.26256e-16 2
    endloop
  endfacet
  facet normal 0 0 -1
    outer loop
      vertex 3.86271 11.8882 2
      vertex 8.14916 12.0191 2
      vertex 6.25 10.8253 2
    endloop
  endfacet
  facet normal 0 0 -1
    outer loop
      vertex -19.3475 2.26256e-16 2
      vertex -22.3146 -1.56434 2
      vertex -18.4238 1.6 2
    endloop
  endfacet
  facet normal 0 0 -1
    outer loop
      vertex -18.4238 1.6 2
      vertex -2.34928 14.33 2
      vertex -8.36413 9.28931 2
    endloop
  endfacet
  facet normal 0 0 -1
    outer loop
      vertex -10.1127 7.34732 2
      vertex -18.4238 1.6 2
      vertex -8.36413 9.28931 2
    endloop
  endfacet
  facet normal 0 0 -1
    outer loop
      vertex -6.25 10.8253 2
      vertex -0.786167 14.5 2
      vertex -3.86271 11.8882 2
    endloop
  endfacet
  facet normal 0 0 -1
    outer loop
      vertex -11.4193 5.08421 2
      vertex -18.4238 1.6 2
      vertex -10.1127 7.34732 2
    endloop
  endfacet
  facet normal 0 0 -1
    outer loop
      vertex -3.86271 11.8882 2
      vertex 0.786167 14.5 2
      vertex -1.30661 12.4315 2
    endloop
  endfacet
  facet normal 0 0 -1
    outer loop
      vertex -18.4238 1.6 2
      vertex -11.4193 5.08421 2
      vertex -16.5762 1.6 2
    endloop
  endfacet
  facet normal 0 0 -1
    outer loop
      vertex -12.5 0 2
      vertex -15.6525 -2.26256e-16 2
      vertex -12.2268 2.5989 2
    endloop
  endfacet
  facet normal -0.987688 0.156435 0
    outer loop
      vertex -22.5623 6.19956e-16 2
      vertex -22.5623 6.19956e-16 4
      vertex -22.3146 1.56435 2
    endloop
  endfacet
  facet normal -0.987688 0.156435 0
    outer loop
      vertex -22.3146 1.56435 2
      vertex -22.5623 6.19956e-16 4
      vertex -22.3146 1.56435 4
    endloop
  endfacet
  facet normal -0.987688 -0.156435 0
    outer loop
      vertex -22.5623 6.19956e-16 2
      vertex -22.3146 -1.56434 2
      vertex -22.5623 6.19956e-16 4
    endloop
  endfacet
  facet normal -0.987688 -0.156435 0
    outer loop
      vertex -22.5623 6.19956e-16 4
      vertex -22.3146 -1.56434 2
      vertex -22.3146 -1.56434 4
    endloop
  endfacet
  facet normal -0.891006 -0.453991 0
    outer loop
      vertex -22.3146 -1.56434 2
      vertex -21.5955 -2.97556 2
      vertex -22.3146 -1.56434 4
    endloop
  endfacet
  facet normal -0.891006 -0.453991 0
    outer loop
      vertex -22.3146 -1.56434 4
      vertex -21.5955 -2.97556 2
      vertex -21.5955 -2.97556 4
    endloop
  endfacet
  facet normal -0.707107 -0.707107 0
    outer loop
      vertex -21.5955 -2.97556 2
      vertex -20.4756 -4.09551 2
      vertex -21.5955 -2.97556 4
    endloop
  endfacet
  facet normal -0.707107 -0.707107 0
    outer loop
      vertex -21.5955 -2.97556 4
      vertex -20.4756 -4.09551 2
      vertex -20.4756 -4.09551 4
    endloop
  endfacet
  facet normal -0.540733 -0.841194 0
    outer loop
      vertex -20.4756 -4.09551 4
      vertex -20.4756 -4.09551 2
      vertex -8.14916 -12.0191 2
    endloop
  endfacet
  facet normal -0.540733 -0.841194 0
    outer loop
      vertex -8.14916 -12.0191 4
      vertex -20.4756 -4.09551 4
      vertex -8.14916 -12.0191 2
    endloop
  endfacet
  facet normal -0.515554 -0.856857 0
    outer loop
      vertex -8.14916 -12.0191 4
      vertex -8.14916 -12.0191 2
      vertex -6.8019 -12.8297 2
    endloop
  endfacet
  facet normal -0.515554 -0.856857 0
    outer loop
      vertex -6.8019 -12.8297 4
      vertex -8.14916 -12.0191 4
      vertex -6.8019 -12.8297 2
    endloop
  endfacet
  facet normal -0.419889 -0.907575 0
    outer loop
      vertex -6.8019 -12.8297 4
      vertex -6.8019 -12.8297 2
      vertex -5.37489 -13.4899 2
    endloop
  endfacet
  facet normal -0.419889 -0.907575 0
    outer loop
      vertex -5.37489 -13.4899 4
      vertex -6.8019 -12.8297 4
      vertex -5.37489 -13.4899 2
    endloop
  endfacet
  facet normal -0.319301 -0.947653 0
    outer loop
      vertex -5.37489 -13.4899 4
      vertex -5.37489 -13.4899 2
      vertex -3.88486 -13.992 2
    endloop
  endfacet
  facet normal -0.319301 -0.947653 0
    outer loop
      vertex -3.88486 -13.992 4
      vertex -5.37489 -13.4899 4
      vertex -3.88486 -13.992 2
    endloop
  endfacet
  facet normal -0.214971 -0.97662 0
    outer loop
      vertex -3.88486 -13.992 4
      vertex -3.88486 -13.992 2
      vertex -2.34928 -14.33 2
    endloop
  endfacet
  facet normal -0.214971 -0.97662 0
    outer loop
      vertex -2.34928 -14.33 4
      vertex -3.88486 -13.992 4
      vertex -2.34928 -14.33 2
    endloop
  endfacet
  facet normal -0.108119 -0.994138 0
    outer loop
      vertex -2.34928 -14.33 4
      vertex -2.34928 -14.33 2
      vertex -0.786167 -14.5 2
    endloop
  endfacet
  facet normal -0.108119 -0.994138 0
    outer loop
      vertex -0.786167 -14.5 4
      vertex -2.34928 -14.33 4
      vertex -0.786167 -14.5 2
    endloop
  endfacet
  facet normal -1.22465e-16 -1 0
    outer loop
      vertex -0.786167 -14.5 4
      vertex -0.786167 -14.5 2
      vertex 0.786167 -14.5 2
    endloop
  endfacet
  facet normal -1.22465e-16 -1 0
    outer loop
      vertex 0.786167 -14.5 4
      vertex -0.786167 -14.5 4
      vertex 0.786167 -14.5 2
    endloop
  endfacet
  facet normal 0.108119 -0.994138 0
    outer loop
      vertex 0.786167 -14.5 4
      vertex 0.786167 -14.5 2
      vertex 2.34928 -14.33 2
    endloop
  endfacet
  facet normal 0.108119 -0.994138 0
    outer loop
      vertex 2.34928 -14.33 4
      vertex 0.786167 -14.5 4
      vertex 2.34928 -14.33 2
    endloop
  endfacet
  facet normal 0.214971 -0.97662 0
    outer loop
      vertex 2.34928 -14.33 4
      vertex 2.34928 -14.33 2
      vertex 3.88486 -13.992 2
    endloop
  endfacet
  facet normal 0.214971 -0.97662 0
    outer loop
      vertex 3.88486 -13.992 4
      vertex 2.34928 -14.33 4
      vertex 3.88486 -13.992 2
    endloop
  endfacet
  facet normal 0.319301 -0.947653 0
    outer loop
      vertex 3.88486 -13.992 4
      vertex 3.88486 -13.992 2
      vertex 5.37489 -13.4899 2
    endloop
  endfacet
  facet normal 0.319301 -0.947653 0
    outer loop
      vertex 5.37489 -13.4899 4
      vertex 3.88486 -13.992 4
      vertex 5.37489 -13.4899 2
    endloop
  endfacet
  facet normal 0.419889 -0.907575 0
    outer loop
      vertex 5.37489 -13.4899 4
      vertex 5.37489 -13.4899 2
      vertex 6.8019 -12.8297 2
    endloop
  endfacet
  facet normal 0.419889 -0.907575 0
    outer loop
      vertex 6.8019 -12.8297 4
      vertex 5.37489 -13.4899 4
      vertex 6.8019 -12.8297 2
    endloop
  endfacet
  facet normal 0.515554 -0.856857 0
    outer loop
      vertex 6.8019 -12.8297 4
      vertex 6.8019 -12.8297 2
      vertex 8.14916 -12.0191 2
    endloop
  endfacet
  facet normal 0.515554 -0.856857 0
    outer loop
      vertex 8.14916 -12.0191 4
      vertex 6.8019 -12.8297 4
      vertex 8.14916 -12.0191 2
    endloop
  endfacet
  facet normal 0.540733 -0.841194 0
    outer loop
      vertex 8.14916 -12.0191 4
      vertex 8.14916 -12.0191 2
      vertex 20.4756 -4.09551 2
    endloop
  endfacet
  facet normal 0.540733 -0.841194 0
    outer loop
      vertex 20.4756 -4.09551 4
      vertex 8.14916 -12.0191 4
      vertex 20.4756 -4.09551 2
    endloop
  endfacet
  facet normal 0.707107 -0.707107 0
    outer loop
      vertex 20.4756 -4.09551 4
      vertex 20.4756 -4.09551 2
      vertex 21.5955 -2.97556 2
    endloop
  endfacet
  facet normal 0.707107 -0.707107 0
    outer loop
      vertex 21.5955 -2.97556 4
      vertex 20.4756 -4.09551 4
      vertex 21.5955 -2.97556 2
    endloop
  endfacet
  facet normal 0.891006 -0.453991 0
    outer loop
      vertex 21.5955 -2.97556 4
      vertex 21.5955 -2.97556 2
      vertex 22.3146 -1.56435 2
    endloop
  endfacet
  facet normal 0.891006 -0.453991 0
    outer loop
      vertex 22.3146 -1.56435 4
      vertex 21.5955 -2.97556 4
      vertex 22.3146 -1.56435 2
    endloop
  endfacet
  facet normal 0.987688 -0.156435 0
    outer loop
      vertex 22.3146 -1.56435 4
      vertex 22.3146 -1.56435 2
      vertex 22.5623 -6.19956e-16 2
    endloop
  endfacet
  facet normal 0.987688 -0.156435 0
    outer loop
      vertex 22.5623 -6.19956e-16 4
      vertex 22.3146 -1.56435 4
      vertex 22.5623 -6.19956e-16 2
    endloop
  endfacet
  facet normal 0.987688 0.156435 0
    outer loop
      vertex 22.5623 -6.19956e-16 2
      vertex 22.3146 1.56434 2
      vertex 22.3146 1.56434 4
    endloop
  endfacet
  facet normal 0.987688 0.156435 0
    outer loop
      vertex 22.5623 -6.19956e-16 4
      vertex 22.5623 -6.19956e-16 2
      vertex 22.3146 1.56434 4
    endloop
  endfacet
  facet normal 0.891006 0.453991 0
    outer loop
      vertex 22.3146 1.56434 2
      vertex 21.5955 2.97556 2
      vertex 21.5955 2.97556 4
    endloop
  endfacet
  facet normal 0.891006 0.453991 0
    outer loop
      vertex 22.3146 1.56434 4
      vertex 22.3146 1.56434 2
      vertex 21.5955 2.97556 4
    endloop
  endfacet
  facet normal 0.707107 0.707107 0
    outer loop
      vertex 21.5955 2.97556 2
      vertex 20.4756 4.09551 2
      vertex 20.4756 4.09551 4
    endloop
  endfacet
  facet normal 0.707107 0.707107 0
    outer loop
      vertex 21.5955 2.97556 4
      vertex 21.5955 2.97556 2
      vertex 20.4756 4.09551 4
    endloop
  endfacet
  facet normal 0.540733 0.841194 0
    outer loop
      vertex 8.14916 12.0191 2
      vertex 8.14916 12.0191 4
      vertex 20.4756 4.09551 2
    endloop
  endfacet
  facet normal 0.540733 0.841194 0
    outer loop
      vertex 20.4756 4.09551 2
      vertex 8.14916 12.0191 4
      vertex 20.4756 4.09551 4
    endloop
  endfacet
  facet normal 0.515554 0.856857 0
    outer loop
      vertex 6.8019 12.8297 2
      vertex 6.8019 12.8297 4
      vertex 8.14916 12.0191 2
    endloop
  endfacet
  facet normal 0.515554 0.856857 0
    outer loop
      vertex 8.14916 12.0191 2
      vertex 6.8019 12.8297 4
      vertex 8.14916 12.0191 4
    endloop
  endfacet
  facet normal 0.419889 0.907575 0
    outer loop
      vertex 5.37489 13.4899 2
      vertex 5.37489 13.4899 4
      vertex 6.8019 12.8297 2
    endloop
  endfacet
  facet normal 0.419889 0.907575 0
    outer loop
      vertex 6.8019 12.8297 2
      vertex 5.37489 13.4899 4
      vertex 6.8019 12.8297 4
    endloop
  endfacet
  facet normal 0.319301 0.947653 0
    outer loop
      vertex 3.88486 13.992 2
      vertex 3.88486 13.992 4
      vertex 5.37489 13.4899 2
    endloop
  endfacet
  facet normal 0.319301 0.947653 0
    outer loop
      vertex 5.37489 13.4899 2
      vertex 3.88486 13.992 4
      vertex 5.37489 13.4899 4
    endloop
  endfacet
  facet normal 0.214971 0.97662 0
    outer loop
      vertex 2.34928 14.33 2
      vertex 2.34928 14.33 4
      vertex 3.88486 13.992 2
    endloop
  endfacet
  facet normal 0.214971 0.97662 0
    outer loop
      vertex 3.88486 13.992 2
      vertex 2.34928 14.33 4
      vertex 3.88486 13.992 4
    endloop
  endfacet
  facet normal 0.108119 0.994138 0
    outer loop
      vertex 0.786167 14.5 2
      vertex 0.786167 14.5 4
      vertex 2.34928 14.33 2
    endloop
  endfacet
  facet normal 0.108119 0.994138 0
    outer loop
      vertex 2.34928 14.33 2
      vertex 0.786167 14.5 4
      vertex 2.34928 14.33 4
    endloop
  endfacet
  facet normal 1.22465e-16 1 0
    outer loop
      vertex -0.786167 14.5 2
      vertex -0.786167 14.5 4
      vertex 0.786167 14.5 2
    endloop
  endfacet
  facet normal 1.22465e-16 1 0
    outer loop
      vertex 0.786167 14.5 2
      vertex -0.786167 14.5 4
      vertex 0.786167 14.5 4
    endloop
  endfacet
  facet normal -0.108119 0.994138 0
    outer loop
      vertex -2.34928 14.33 2
      vertex -2.34928 14.33 4
      vertex -0.786167 14.5 2
    endloop
  endfacet
  facet normal -0.108119 0.994138 0
    outer loop
      vertex -0.786167 14.5 2
      vertex -2.34928 14.33 4
      vertex -0.786167 14.5 4
    endloop
  endfacet
  facet normal -0.214971 0.97662 0
    outer loop
      vertex -3.88486 13.992 2
      vertex -3.88486 13.992 4
      vertex -2.34928 14.33 2
    endloop
  endfacet
  facet normal -0.214971 0.97662 0
    outer loop
      vertex -2.34928 14.33 2
      vertex -3.88486 13.992 4
      vertex -2.34928 14.33 4
    endloop
  endfacet
  facet normal -0.319301 0.947653 0
    outer loop
      vertex -5.37489 13.4899 2
      vertex -5.37489 13.4899 4
      vertex -3.88486 13.992 2
    endloop
  endfacet
  facet normal -0.319301 0.947653 0
    outer loop
      vertex -3.88486 13.992 2
      vertex -5.37489 13.4899 4
      vertex -3.88486 13.992 4
    endloop
  endfacet
  facet normal -0.419889 0.907575 0
    outer loop
      vertex -6.8019 12.8297 2
      vertex -6.8019 12.8297 4
      vertex -5.37489 13.4899 2
    endloop
  endfacet
  facet normal -0.419889 0.907575 0
    outer loop
      vertex -5.37489 13.4899 2
      vertex -6.8019 12.8297 4
      vertex -5.37489 13.4899 4
    endloop
  endfacet
  facet normal -0.515554 0.856857 0
    outer loop
      vertex -8.14916 12.0191 2
      vertex -8.14916 12.0191 4
      vertex -6.8019 12.8297 2
    endloop
  endfacet
  facet normal -0.515554 0.856857 0
    outer loop
      vertex -6.8019 12.8297 2
      vertex -8.14916 12.0191 4
      vertex -6.8019 12.8297 4
    endloop
  endfacet
  facet normal -0.540733 0.841194 0
    outer loop
      vertex -20.4756 4.09551 2
      vertex -20.4756 4.09551 4
      vertex -8.14916 12.0191 2
    endloop
  endfacet
  facet normal -0.540733 0.841194 0
    outer loop
      vertex -8.14916 12.0191 2
      vertex -20.4756 4.09551 4
      vertex -8.14916 12.0191 4
    endloop
  endfacet
  facet normal -0.707107 0.707107 0
    outer loop
      vertex -21.5955 2.97556 2
      vertex -21.5955 2.97556 4
      vertex -20.4756 4.09551 2
    endloop
  endfacet
  facet normal -0.707107 0.707107 0
    outer loop
      vertex -20.4756 4.09551 2
      vertex -21.5955 2.97556 4
      vertex -20.4756 4.09551 4
    endloop
  endfacet
  facet normal -0.891006 0.453991 0
    outer loop
      vertex -22.3146 1.56435 2
      vertex -22.3146 1.56435 4
      vertex -21.5955 2.97556 2
    endloop
  endfacet
  facet normal -0.891006 0.453991 0
    outer loop
      vertex -21.5955 2.97556 2
      vertex -22.3146 1.56435 4
      vertex -21.5955 2.97556 4
    endloop
  endfacet
  facet normal 0.866025 0.5 0
    outer loop
      vertex -19.3475 2.26256e-16 4
      vertex -18.4238 -1.6 4
      vertex -18.4238 -1.6 2
    endloop
  endfacet
  facet normal 0.866025 0.5 0
    outer loop
      vertex -19.3475 2.26256e-16 2
      vertex -19.3475 2.26256e-16 4
      vertex -18.4238 -1.6 2
    endloop
  endfacet
  facet normal 0.866025 -0.5 0
    outer loop
      vertex -18.4238 1.6 2
      vertex -18.4238 1.6 4
      vertex -19.3475 2.26256e-16 4
    endloop
  endfacet
  facet normal 0.866025 -0.5 0
    outer loop
      vertex -19.3475 2.26256e-16 2
      vertex -18.4238 1.6 2
      vertex -19.3475 2.26256e-16 4
    endloop
  endfacet
  facet normal -1.22465e-16 -1 0
    outer loop
      vertex -16.5762 1.6 2
      vertex -16.5762 1.6 4
      vertex -18.4238 1.6 4
    endloop
  endfacet
  facet normal -1.22465e-16 -1 0
    outer loop
      vertex -18.4238 1.6 2
      vertex -16.5762 1.6 2
      vertex -18.4238 1.6 4
    endloop
  endfacet
  facet normal -0.866025 -0.5 0
    outer loop
      vertex -15.6525 -2.26256e-16 4
      vertex -16.5762 1.6 4
      vertex -15.6525 -2.26256e-16 2
    endloop
  endfacet
  facet normal -0.866025 -0.5 0
    outer loop
      vertex -15.6525 -2.26256e-16 2
      vertex -16.5762 1.6 4
      vertex -16.5762 1.6 2
    endloop
  endfacet
  facet normal -0.866025 0.5 0
    outer loop
      vertex -15.6525 -2.26256e-16 4
      vertex -15.6525 -2.26256e-16 2
      vertex -16.5762 -1.6 4
    endloop
  endfacet
  facet normal -0.866025 0.5 0
    outer loop
      vertex -16.5762 -1.6 4
      vertex -15.6525 -2.26256e-16 2
      vertex -16.5762 -1.6 2
    endloop
  endfacet
  facet normal 1.22465e-16 1 0
    outer loop
      vertex -16.5762 -1.6 4
      vertex -16.5762 -1.6 2
      vertex -18.4238 -1.6 4
    endloop
  endfacet
  facet normal 1.22465e-16 1 0
    outer loop
      vertex -18.4238 -1.6 4
      vertex -16.5762 -1.6 2
      vertex -18.4238 -1.6 2
    endloop
  endfacet
  facet normal -0.994522 -0.104528 0
    outer loop
      vertex -12.5 0 0
      vertex -12.2268 -2.5989 0
      vertex -12.5 0 2
    endloop
  endfacet
  facet normal -0.994522 -0.104528 0
    outer loop
      vertex -12.5 0 2
      vertex -12.2268 -2.5989 0
      vertex -12.2268 -2.5989 2
    endloop
  endfacet
  facet normal -0.994522 0.104528 0
    outer loop
      vertex -12.5 0 0
      vertex -12.5 0 2
      vertex -12.2268 2.5989 0
    endloop
  endfacet
  facet normal -0.994522 0.104528 0
    outer loop
      vertex -12.2268 2.5989 0
      vertex -12.5 0 2
      vertex -12.2268 2.5989 2
    endloop
  endfacet
  facet normal -0.951056 0.309017 0
    outer loop
      vertex -12.2268 2.5989 0
      vertex -12.2268 2.5989 2
      vertex -11.4193 5.08421 0
    endloop
  endfacet
  facet normal -0.951056 0.309017 0
    outer loop
      vertex -11.4193 5.08421 0
      vertex -12.2268 2.5989 2
      vertex -11.4193 5.08421 2
    endloop
  endfacet
  facet normal -0.866025 0.5 0
    outer loop
      vertex -11.4193 5.08421 0
      vertex -11.4193 5.08421 2
      vertex -10.1127 7.34732 0
    endloop
  endfacet
  facet normal -0.866025 0.5 0
    outer loop
      vertex -10.1127 7.34732 0
      vertex -11.4193 5.08421 2
      vertex -10.1127 7.34732 2
    endloop
  endfacet
  facet normal -0.743145 0.669131 0
    outer loop
      vertex -10.1127 7.34732 0
      vertex -10.1127 7.34732 2
      vertex -8.36413 9.28931 0
    endloop
  endfacet
  facet normal -0.743145 0.669131 0
    outer loop
      vertex -8.36413 9.28931 0
      vertex -10.1127 7.34732 2
      vertex -8.36413 9.28931 2
    endloop
  endfacet
  facet normal -0.587785 0.809017 0
    outer loop
      vertex -8.36413 9.28931 0
      vertex -8.36413 9.28931 2
      vertex -6.25 10.8253 0
    endloop
  endfacet
  facet normal -0.587785 0.809017 0
    outer loop
      vertex -6.25 10.8253 0
      vertex -8.36413 9.28931 2
      vertex -6.25 10.8253 2
    endloop
  endfacet
  facet normal -0.406736 0.913546 0
    outer loop
      vertex -6.25 10.8253 0
      vertex -6.25 10.8253 2
      vertex -3.86271 11.8882 0
    endloop
  endfacet
  facet normal -0.406736 0.913546 0
    outer loop
      vertex -3.86271 11.8882 0
      vertex -6.25 10.8253 2
      vertex -3.86271 11.8882 2
    endloop
  endfacet
  facet normal -0.207912 0.978148 0
    outer loop
      vertex -3.86271 11.8882 0
      vertex -3.86271 11.8882 2
      vertex -1.30661 12.4315 0
    endloop
  endfacet
  facet normal -0.207912 0.978148 0
    outer loop
      vertex -1.30661 12.4315 0
      vertex -3.86271 11.8882 2
      vertex -1.30661 12.4315 2
    endloop
  endfacet
  facet normal 0 1 0
    outer loop
      vertex -1.30661 12.4315 0
      vertex -1.30661 12.4315 2
      vertex 1.30661 12.4315 0
    endloop
  endfacet
  facet normal 0 1 0
    outer loop
      vertex 1.30661 12.4315 0
      vertex -1.30661 12.4315 2
      vertex 1.30661 12.4315 2
    endloop
  endfacet
  facet normal 0.207912 0.978148 0
    outer loop
      vertex 1.30661 12.4315 0
      vertex 1.30661 12.4315 2
      vertex 3.86271 11.8882 0
    endloop
  endfacet
  facet normal 0.207912 0.978148 0
    outer loop
      vertex 3.86271 11.8882 0
      vertex 1.30661 12.4315 2
      vertex 3.86271 11.8882 2
    endloop
  endfacet
  facet normal 0.406736 0.913546 0
    outer loop
      vertex 3.86271 11.8882 0
      vertex 3.86271 11.8882 2
      vertex 6.25 10.8253 0
    endloop
  endfacet
  facet normal 0.406736 0.913546 0
    outer loop
      vertex 6.25 10.8253 0
      vertex 3.86271 11.8882 2
      vertex 6.25 10.8253 2
    endloop
  endfacet
  facet normal 0.587785 0.809017 0
    outer loop
      vertex 6.25 10.8253 0
      vertex 6.25 10.8253 2
      vertex 8.36413 9.28931 0
    endloop
  endfacet
  facet normal 0.587785 0.809017 0
    outer loop
      vertex 8.36413 9.28931 0
      vertex 6.25 10.8253 2
      vertex 8.36413 9.28931 2
    endloop
  endfacet
  facet normal 0.743145 0.669131 0
    outer loop
      vertex 10.1127 7.34732 0
      vertex 8.36413 9.28931 0
      vertex 8.36413 9.28931 2
    endloop
  endfacet
  facet normal 0.743145 0.669131 0
    outer loop
      vertex 10.1127 7.34732 2
      vertex 10.1127 7.34732 0
      vertex 8.36413 9.28931 2
    endloop
  endfacet
  facet normal 0.866025 0.5 0
    outer loop
      vertex 11.4193 5.08421 0
      vertex 10.1127 7.34732 0
      vertex 10.1127 7.34732 2
    endloop
  endfacet
  facet normal 0.866025 0.5 0
    outer loop
      vertex 11.4193 5.08421 2
      vertex 11.4193 5.08421 0
      vertex 10.1127 7.34732 2
    endloop
  endfacet
  facet normal 0.951056 0.309017 0
    outer loop
      vertex 12.2268 2.5989 0
      vertex 11.4193 5.08421 0
      vertex 11.4193 5.08421 2
    endloop
  endfacet
  facet normal 0.951056 0.309017 0
    outer loop
      vertex 12.2268 2.5989 2
      vertex 12.2268 2.5989 0
      vertex 11.4193 5.08421 2
    endloop
  endfacet
  facet normal 0.994522 0.104528 0
    outer loop
      vertex 12.5 0 0
      vertex 12.2268 2.5989 0
      vertex 12.2268 2.5989 2
    endloop
  endfacet
  facet normal 0.994522 0.104528 0
    outer loop
      vertex 12.5 0 2
      vertex 12.5 0 0
      vertex 12.2268 2.5989 2
    endloop
  endfacet
  facet normal 0.994522 -0.104528 0
    outer loop
      vertex 12.2268 -2.5989 2
      vertex 12.2268 -2.5989 0
      vertex 12.5 0 0
    endloop
  endfacet
  facet normal 0.994522 -0.104528 0
    outer loop
      vertex 12.5 0 2
      vertex 12.2268 -2.5989 2
      vertex 12.5 0 0
    endloop
  endfacet
  facet normal 0.951056 -0.309017 0
    outer loop
      vertex 11.4193 -5.08421 2
      vertex 11.4193 -5.08421 0
      vertex 12.2268 -2.5989 0
    endloop
  endfacet
  facet normal 0.951056 -0.309017 0
    outer loop
      vertex 12.2268 -2.5989 2
      vertex 11.4193 -5.08421 2
      vertex 12.2268 -2.5989 0
    endloop
  endfacet
  facet normal 0.866025 -0.5 0
    outer loop
      vertex 10.1127 -7.34732 2
      vertex 10.1127 -7.34732 0
      vertex 11.4193 -5.08421 0
    endloop
  endfacet
  facet normal 0.866025 -0.5 0
    outer loop
      vertex 11.4193 -5.08421 2
      vertex 10.1127 -7.34732 2
      vertex 11.4193 -5.08421 0
    endloop
  endfacet
  facet normal 0.743145 -0.669131 0
    outer loop
      vertex 8.36413 -9.28931 2
      vertex 8.36413 -9.28931 0
      vertex 10.1127 -7.34732 0
    endloop
  endfacet
  facet normal 0.743145 -0.669131 0
    outer loop
      vertex 10.1127 -7.34732 2
      vertex 8.36413 -9.28931 2
      vertex 10.1127 -7.34732 0
    endloop
  endfacet
  facet normal 0.587785 -0.809017 0
    outer loop
      vertex 6.25 -10.8253 2
      vertex 6.25 -10.8253 0
      vertex 8.36413 -9.28931 0
    endloop
  endfacet
  facet normal 0.587785 -0.809017 0
    outer loop
      vertex 8.36413 -9.28931 2
      vertex 6.25 -10.8253 2
      vertex 8.36413 -9.28931 0
    endloop
  endfacet
  facet normal 0.406736 -0.913546 0
    outer loop
      vertex 3.86271 -11.8882 2
      vertex 3.86271 -11.8882 0
      vertex 6.25 -10.8253 0
    endloop
  endfacet
  facet normal 0.406736 -0.913546 0
    outer loop
      vertex 6.25 -10.8253 2
      vertex 3.86271 -11.8882 2
      vertex 6.25 -10.8253 0
    endloop
  endfacet
  facet normal 0.207912 -0.978148 0
    outer loop
      vertex 1.30661 -12.4315 2
      vertex 1.30661 -12.4315 0
      vertex 3.86271 -11.8882 0
    endloop
  endfacet
  facet normal 0.207912 -0.978148 0
    outer loop
      vertex 3.86271 -11.8882 2
      vertex 1.30661 -12.4315 2
      vertex 3.86271 -11.8882 0
    endloop
  endfacet
  facet normal 0 -1 0
    outer loop
      vertex -1.30661 -12.4315 2
      vertex -1.30661 -12.4315 0
      vertex 1.30661 -12.4315 0
    endloop
  endfacet
  facet normal 0 -1 0
    outer loop
      vertex 1.30661 -12.4315 2
      vertex -1.30661 -12.4315 2
      vertex 1.30661 -12.4315 0
    endloop
  endfacet
  facet normal -0.207912 -0.978148 0
    outer loop
      vertex -3.86271 -11.8882 2
      vertex -3.86271 -11.8882 0
      vertex -1.30661 -12.4315 0
    endloop
  endfacet
  facet normal -0.207912 -0.978148 0
    outer loop
      vertex -1.30661 -12.4315 2
      vertex -3.86271 -11.8882 2
      vertex -1.30661 -12.4315 0
    endloop
  endfacet
  facet normal -0.406736 -0.913546 0
    outer loop
      vertex -6.25 -10.8253 2
      vertex -6.25 -10.8253 0
      vertex -3.86271 -11.8882 0
    endloop
  endfacet
  facet normal -0.406736 -0.913546 0
    outer loop
      vertex -3.86271 -11.8882 2
      vertex -6.25 -10.8253 2
      vertex -3.86271 -11.8882 0
    endloop
  endfacet
  facet normal -0.587785 -0.809017 0
    outer loop
      vertex -8.36413 -9.28931 2
      vertex -8.36413 -9.28931 0
      vertex -6.25 -10.8253 0
    endloop
  endfacet
  facet normal -0.587785 -0.809017 0
    outer loop
      vertex -6.25 -10.8253 2
      vertex -8.36413 -9.28931 2
      vertex -6.25 -10.8253 0
    endloop
  endfacet
  facet normal -0.743145 -0.669131 0
    outer loop
      vertex -10.1127 -7.34732 0
      vertex -8.36413 -9.28931 0
      vertex -10.1127 -7.34732 2
    endloop
  endfacet
  facet normal -0.743145 -0.669131 0
    outer loop
      vertex -10.1127 -7.34732 2
      vertex -8.36413 -9.28931 0
      vertex -8.36413 -9.28931 2
    endloop
  endfacet
  facet normal -0.866025 -0.5 0
    outer loop
      vertex -11.4193 -5.08421 0
      vertex -10.1127 -7.34732 0
      vertex -11.4193 -5.08421 2
    endloop
  endfacet
  facet normal -0.866025 -0.5 0
    outer loop
      vertex -11.4193 -5.08421 2
      vertex -10.1127 -7.34732 0
      vertex -10.1127 -7.34732 2
    endloop
  endfacet
  facet normal -0.951056 -0.309017 0
    outer loop
      vertex -12.2268 -2.5989 0
      vertex -11.4193 -5.08421 0
      vertex -12.2268 -2.5989 2
    endloop
  endfacet
  facet normal -0.951056 -0.309017 0
    outer loop
      vertex -12.2268 -2.5989 2
      vertex -11.4193 -5.08421 0
      vertex -11.4193 -5.08421 2
    endloop
  endfacet
  facet normal 0.866025 -0.5 0
    outer loop
      vertex 16.5762 1.6 2
      vertex 16.5762 1.6 4
      vertex 15.6525 2.26256e-16 4
    endloop
  endfacet
  facet normal 0.866025 -0.5 0
    outer loop
      vertex 15.6525 2.26256e-16 2
      vertex 16.5762 1.6 2
      vertex 15.6525 2.26256e-16 4
    endloop
  endfacet
  facet normal 0.866025 0.5 0
    outer loop
      vertex 15.6525 2.26256e-16 4
      vertex 16.5762 -1.6 4
      vertex 16.5762 -1.6 2
    endloop
  endfacet
  facet normal 0.866025 0.5 0
    outer loop
      vertex 15.6525 2.26256e-16 2
      vertex 15.6525 2.26256e-16 4
      vertex 16.5762 -1.6 2
    endloop
  endfacet
  facet normal -1.22465e-16 -1 0
    outer loop
      vertex 18.4238 1.6 2
      vertex 18.4238 1.6 4
      vertex 16.5762 1.6 4
    endloop
  endfacet
  facet normal -1.22465e-16 -1 0
    outer loop
      vertex 16.5762 1.6 2
      vertex 18.4238 1.6 2
      vertex 16.5762 1.6 4
    endloop
  endfacet
  facet normal -0.866025 -0.5 0
    outer loop
      vertex 19.3475 -2.26256e-16 4
      vertex 18.4238 1.6 4
      vertex 19.3475 -2.26256e-16 2
    endloop
  endfacet
  facet normal -0.866025 -0.5 0
    outer loop
      vertex 19.3475 -2.26256e-16 2
      vertex 18.4238 1.6 4
      vertex 18.4238 1.6 2
    endloop
  endfacet
  facet normal -0.866025 0.5 0
    outer loop
      vertex 19.3475 -2.26256e-16 4
      vertex 19.3475 -2.26256e-16 2
      vertex 18.4238 -1.6 4
    endloop
  endfacet
  facet normal -0.866025 0.5 0
    outer loop
      vertex 18.4238 -1.6 4
      vertex 19.3475 -2.26256e-16 2
      vertex 18.4238 -1.6 2
    endloop
  endfacet
  facet normal 1.22465e-16 1 0
    outer loop
      vertex 18.4238 -1.6 4
      vertex 18.4238 -1.6 2
      vertex 16.5762 -1.6 4
    endloop
  endfacet
  facet normal 1.22465e-16 1 0
    outer loop
      vertex 16.5762 -1.6 4
      vertex 18.4238 -1.6 2
      vertex 16.5762 -1.6 2
    endloop
  endfacet
  facet normal 0 0 1
    outer loop
      vertex -22.3146 1.56435 4
      vertex -22.5623 6.19956e-16 4
      vertex -22.3146 -1.56434 4
    endloop
  endfacet
  facet normal 0 0 1
    outer loop
      vertex -20.4756 -4.09551 4
      vertex -22.3146 1.56435 4
      vertex -21.5955 -2.97556 4
    endloop
  endfacet
  facet normal 0 0 1
    outer loop
      vertex -21.5955 -2.97556 4
      vertex -22.3146 1.56435 4
      vertex -22.3146 -1.56434 4
    endloop
  endfacet
  facet normal 0 0 1
    outer loop
      vertex -8.14916 -12.0191 4
      vertex -22.3146 1.56435 4
      vertex -20.4756 -4.09551 4
    endloop
  endfacet
  facet normal 0 0 1
    outer loop
      vertex -6.8019 -12.8297 4
      vertex -22.3146 1.56435 4
      vertex -8.14916 -12.0191 4
    endloop
  endfacet
  facet normal 0 0 1
    outer loop
      vertex -5.37489 -13.4899 4
      vertex -22.3146 1.56435 4
      vertex -6.8019 -12.8297 4
    endloop
  endfacet
  facet normal 0 0 1
    outer loop
      vertex -3.88486 -13.992 4
      vertex -22.3146 1.56435 4
      vertex -5.37489 -13.4899 4
    endloop
  endfacet
  facet normal 0 0 1
    outer loop
      vertex -18.4238 -1.6 4
      vertex -22.3146 1.56435 4
      vertex -3.88486 -13.992 4
    endloop
  endfacet
  facet normal 0 0 1
    outer loop
      vertex -18.4238 -1.6 4
      vertex -19.3475 2.26256e-16 4
      vertex -22.3146 1.56435 4
    endloop
  endfacet
  facet normal 0 0 1
    outer loop
      vertex 9.65 -6.55 4
      vertex 3.88486 -13.992 4
      vertex 5.37489 -13.4899 4
    endloop
  endfacet
  facet normal 0 0 1
    outer loop
      vertex 9.65 -6.55 4
      vertex 5.37489 -13.4899 4
      vertex 6.8019 -12.8297 4
    endloop
  endfacet
  facet normal 0 0 1
    outer loop
      vertex 18.4238 1.6 4
      vertex 19.3475 -2.26256e-16 4
      vertex 22.5623 -6.19956e-16 4
    endloop
  endfacet
  facet normal 0 0 1
    outer loop
      vertex 9.65 6.55 4
      vertex 21.5955 2.97556 4
      vertex 20.4756 4.09551 4
    endloop
  endfacet
  facet normal 0 0 1
    outer loop
      vertex 3.88486 13.992 4
      vertex -22.3146 1.56435 4
      vertex 5.37489 13.4899 4
    endloop
  endfacet
  facet normal 0 0 1
    outer loop
      vertex 2.34928 14.33 4
      vertex -22.3146 1.56435 4
      vertex 3.88486 13.992 4
    endloop
  endfacet
  facet normal 0 0 1
    outer loop
      vertex 0.786167 14.5 4
      vertex -22.3146 1.56435 4
      vertex 2.34928 14.33 4
    endloop
  endfacet
  facet normal 0 0 1
    outer loop
      vertex -0.786167 14.5 4
      vertex -22.3146 1.56435 4
      vertex 0.786167 14.5 4
    endloop
  endfacet
  facet normal 0 0 1
    outer loop
      vertex -2.34928 14.33 4
      vertex -22.3146 1.56435 4
      vertex -0.786167 14.5 4
    endloop
  endfacet
  facet normal 0 0 1
    outer loop
      vertex -3.88486 13.992 4
      vertex -22.3146 1.56435 4
      vertex -2.34928 14.33 4
    endloop
  endfacet
  facet normal 0 0 1
    outer loop
      vertex -5.37489 13.4899 4
      vertex -22.3146 1.56435 4
      vertex -3.88486 13.992 4
    endloop
  endfacet
  facet normal 0 0 1
    outer loop
      vertex -6.8019 12.8297 4
      vertex -22.3146 1.56435 4
      vertex -5.37489 13.4899 4
    endloop
  endfacet
  facet normal 0 0 1
    outer loop
      vertex -8.14916 12.0191 4
      vertex -22.3146 1.56435 4
      vertex -6.8019 12.8297 4
    endloop
  endfacet
  facet normal 0 0 1
    outer loop
      vertex -20.4756 4.09551 4
      vertex -22.3146 1.56435 4
      vertex -8.14916 12.0191 4
    endloop
  endfacet
  facet normal 0 0 1
    outer loop
      vertex -21.5955 2.97556 4
      vertex -22.3146 1.56435 4
      vertex -20.4756 4.09551 4
    endloop
  endfacet
  facet normal 0 0 1
    outer loop
      vertex -2.34928 -14.33 4
      vertex -18.4238 -1.6 4
      vertex -3.88486 -13.992 4
    endloop
  endfacet
  facet normal 0 0 1
    outer loop
      vertex -9.65 -6.55 4
      vertex -15.6525 -2.26256e-16 4
      vertex -16.5762 -1.6 4
    endloop
  endfacet
  facet normal 0 0 1
    outer loop
      vertex 16.5762 -1.6 4
      vertex 20.4756 -4.09551 4
      vertex 21.5955 -2.97556 4
    endloop
  endfacet
  facet normal 0 0 1
    outer loop
      vertex 9.65 6.55 4
      vertex 15.6525 2.26256e-16 4
      vertex 16.5762 1.6 4
    endloop
  endfacet
  facet normal 0 0 1
    outer loop
      vertex 9.65 6.55 4
      vertex 9.65 -6.55 4
      vertex 16.5762 -1.6 4
    endloop
  endfacet
  facet normal 0 0 1
    outer loop
      vertex 9.65 6.55 4
      vertex 16.5762 -1.6 4
      vertex 15.6525 2.26256e-16 4
    endloop
  endfacet
  facet normal 0 0 1
    outer loop
      vertex -9.65 6.55 4
      vertex 9.65 6.55 4
      vertex 8.14916 12.0191 4
    endloop
  endfacet
  facet normal 0 0 1
    outer loop
      vertex 3.88486 -13.992 4
      vertex -9.65 -6.55 4
      vertex 2.34928 -14.33 4
    endloop
  endfacet
  facet normal 0 0 1
    outer loop
      vertex 5.37489 13.4899 4
      vertex -9.65 6.55 4
      vertex 6.8019 12.8297 4
    endloop
  endfacet
  facet normal 0 0 1
    outer loop
      vertex 5.37489 13.4899 4
      vertex -22.3146 1.56435 4
      vertex -9.65 6.55 4
    endloop
  endfacet
  facet normal 0 0 1
    outer loop
      vertex 8.14916 12.0191 4
      vertex 9.65 6.55 4
      vertex 20.4756 4.09551 4
    endloop
  endfacet
  facet normal 0 0 1
    outer loop
      vertex 9.65 6.55 4
      vertex 16.5762 1.6 4
      vertex 21.5955 2.97556 4
    endloop
  endfacet
  facet normal 0 0 1
    outer loop
      vertex 20.4756 -4.09551 4
      vertex 9.65 -6.55 4
      vertex 8.14916 -12.0191 4
    endloop
  endfacet
  facet normal 0 0 1
    outer loop
      vertex 18.4238 -1.6 4
      vertex 16.5762 -1.6 4
      vertex 21.5955 -2.97556 4
    endloop
  endfacet
  facet normal 0 0 1
    outer loop
      vertex 22.5623 -6.19956e-16 4
      vertex 19.3475 -2.26256e-16 4
      vertex 22.3146 -1.56435 4
    endloop
  endfacet
  facet normal 0 0 1
    outer loop
      vertex 19.3475 -2.26256e-16 4
      vertex 18.4238 -1.6 4
      vertex 22.3146 -1.56435 4
    endloop
  endfacet
  facet normal 0 0 1
    outer loop
      vertex 16.5762 -1.6 4
      vertex 9.65 -6.55 4
      vertex 20.4756 -4.09551 4
    endloop
  endfacet
  facet normal 0 0 1
    outer loop
      vertex 21.5955 2.97556 4
      vertex 18.4238 1.6 4
      vertex 22.3146 1.56434 4
    endloop
  endfacet
  facet normal 0 0 1
    outer loop
      vertex 21.5955 2.97556 4
      vertex 16.5762 1.6 4
      vertex 18.4238 1.6 4
    endloop
  endfacet
  facet normal 0 0 1
    outer loop
      vertex 22.3146 -1.56435 4
      vertex 18.4238 -1.6 4
      vertex 21.5955 -2.97556 4
    endloop
  endfacet
  facet normal 0 0 1
    outer loop
      vertex 9.65 -6.55 4
      vertex -9.65 -6.55 4
      vertex 3.88486 -13.992 4
    endloop
  endfacet
  facet normal 0 0 1
    outer loop
      vertex -9.65 6.55 4
      vertex 8.14916 12.0191 4
      vertex 6.8019 12.8297 4
    endloop
  endfacet
  facet normal 0 0 1
    outer loop
      vertex -9.65 -6.55 4
      vertex 0.786167 -14.5 4
      vertex 2.34928 -14.33 4
    endloop
  endfacet
  facet normal 0 0 1
    outer loop
      vertex -16.5762 -1.6 4
      vertex 0.786167 -14.5 4
      vertex -9.65 -6.55 4
    endloop
  endfacet
  facet normal 0 0 1
    outer loop
      vertex -16.5762 -1.6 4
      vertex -0.786167 -14.5 4
      vertex 0.786167 -14.5 4
    endloop
  endfacet
  facet normal 0 0 1
    outer loop
      vertex -16.5762 -1.6 4
      vertex -2.34928 -14.33 4
      vertex -0.786167 -14.5 4
    endloop
  endfacet
  facet normal 0 0 1
    outer loop
      vertex -16.5762 -1.6 4
      vertex -18.4238 -1.6 4
      vertex -2.34928 -14.33 4
    endloop
  endfacet
  facet normal 0 0 1
    outer loop
      vertex 9.65 -6.55 4
      vertex 6.8019 -12.8297 4
      vertex 8.14916 -12.0191 4
    endloop
  endfacet
  facet normal 0 0 1
    outer loop
      vertex -19.3475 2.26256e-16 4
      vertex -18.4238 1.6 4
      vertex -22.3146 1.56435 4
    endloop
  endfacet
  facet normal 0 0 1
    outer loop
      vertex 18.4238 1.6 4
      vertex 22.5623 -6.19956e-16 4
      vertex 22.3146 1.56434 4
    endloop
  endfacet
  facet normal 0 0 1
    outer loop
      vertex -9.65 -6.55 4
      vertex -16.5762 1.6 4
      vertex -15.6525 -2.26256e-16 4
    endloop
  endfacet
  facet normal 0 0 1
    outer loop
      vertex -18.4238 1.6 4
      vertex -9.65 6.55 4
      vertex -22.3146 1.56435 4
    endloop
  endfacet
  facet normal 0 0 1
    outer loop
      vertex -16.5762 1.6 4
      vertex -9.65 6.55 4
      vertex -18.4238 1.6 4
    endloop
  endfacet
  facet normal 0 0 1
    outer loop
      vertex -9.65 -6.55 4
      vertex -9.65 6.55 4
      vertex -16.5762 1.6 4
    endloop
  endfacet
  facet normal 0 0 -1
    outer loop
      vertex -12.5 0 0
      vertex -12.2268 2.5989 0
      vertex -12.2268 -2.5989 0
    endloop
  endfacet
  facet normal 0 0 -1
    outer loop
      vertex -12.2268 -2.5989 0
      vertex -12.2268 2.5989 0
      vertex -11.4193 5.08421 0
    endloop
  endfacet
  facet normal 0 0 -1
    outer loop
      vertex -12.2268 -2.5989 0
      vertex -11.4193 5.08421 0
      vertex -10.1127 7.34732 0
    endloop
  endfacet
  facet normal 0 0 -1
    outer loop
      vertex -9.65 6.55 0
      vertex -10.1127 7.34732 0
      vertex -8.36413 9.28931 0
    endloop
  endfacet
  facet normal 0 0 -1
    outer loop
      vertex -4.75 8.22724 0
      vertex -1.30661 12.4315 0
      vertex -2.93566 9.03504 0
    endloop
  endfacet
  facet normal 0 0 -1
    outer loop
      vertex -4.75 8.22724 0
      vertex -3.86271 11.8882 0
      vertex -1.30661 12.4315 0
    endloop
  endfacet
  facet normal 0 0 -1
    outer loop
      vertex -2.93566 9.03504 0
      vertex -1.30661 12.4315 0
      vertex 1.30661 12.4315 0
    endloop
  endfacet
  facet normal 0 0 -1
    outer loop
      vertex 0.99302 9.44796 0
      vertex 1.30661 12.4315 0
      vertex 3.86271 11.8882 0
    endloop
  endfacet
  facet normal 0 0 -1
    outer loop
      vertex 2.93566 9.03504 0
      vertex 3.86271 11.8882 0
      vertex 6.25 10.8253 0
    endloop
  endfacet
  facet normal 0 0 -1
    outer loop
      vertex 4.75 8.22724 0
      vertex 6.25 10.8253 0
      vertex 8.36413 9.28931 0
    endloop
  endfacet
  facet normal 0 0 -1
    outer loop
      vertex 6.81584 6.55 0
      vertex 8.36413 9.28931 0
      vertex 10.1127 7.34732 0
    endloop
  endfacet
  facet normal 0 0 -1
    outer loop
      vertex 9.65 6.55 0
      vertex 10.1127 7.34732 0
      vertex 11.4193 5.08421 0
    endloop
  endfacet
  facet normal 0 0 -1
    outer loop
      vertex 9.65 -6.55 0
      vertex 11.4193 -5.08421 0
      vertex 10.1127 -7.34732 0
    endloop
  endfacet
  facet normal 0 0 -1
    outer loop
      vertex 6.35674 -7.05988 0
      vertex 10.1127 -7.34732 0
      vertex 8.36413 -9.28931 0
    endloop
  endfacet
  facet normal 0 0 -1
    outer loop
      vertex 2.93566 -9.03504 0
      vertex 8.36413 -9.28931 0
      vertex 6.25 -10.8253 0
    endloop
  endfacet
  facet normal 0 0 -1
    outer loop
      vertex 0.99302 -9.44796 0
      vertex 6.25 -10.8253 0
      vertex 3.86271 -11.8882 0
    endloop
  endfacet
  facet normal 0 0 -1
    outer loop
      vertex -2.93566 -9.03504 0
      vertex 3.86271 -11.8882 0
      vertex 1.30661 -12.4315 0
    endloop
  endfacet
  facet normal 0 0 -1
    outer loop
      vertex -4.75 -8.22724 0
      vertex 1.30661 -12.4315 0
      vertex -1.30661 -12.4315 0
    endloop
  endfacet
  facet normal 0 0 -1
    outer loop
      vertex 9.65 6.55 0
      vertex 12.5 0 0
      vertex 12.2268 -2.5989 0
    endloop
  endfacet
  facet normal 0 0 -1
    outer loop
      vertex -9.65 -6.55 0
      vertex -6.25 -10.8253 0
      vertex -8.36413 -9.28931 0
    endloop
  endfacet
  facet normal 0 0 -1
    outer loop
      vertex -12.2268 -2.5989 0
      vertex -8.36413 -9.28931 0
      vertex -10.1127 -7.34732 0
    endloop
  endfacet
  facet normal 0 0 -1
    outer loop
      vertex -12.2268 -2.5989 0
      vertex -10.1127 -7.34732 0
      vertex -11.4193 -5.08421 0
    endloop
  endfacet
  facet normal 0 0 -1
    outer loop
      vertex -12.2268 -2.5989 0
      vertex -10.1127 7.34732 0
      vertex -9.65 6.55 0
    endloop
  endfacet
  facet normal 0 0 -1
    outer loop
      vertex -9.65 -6.55 0
      vertex -12.2268 -2.5989 0
      vertex -9.65 6.55 0
    endloop
  endfacet
  facet normal 0 0 -1
    outer loop
      vertex -6.81584 -6.55 0
      vertex -6.25 -10.8253 0
      vertex -9.65 -6.55 0
    endloop
  endfacet
  facet normal 0 0 -1
    outer loop
      vertex -12.2268 -2.5989 0
      vertex -9.65 -6.55 0
      vertex -8.36413 -9.28931 0
    endloop
  endfacet
  facet normal 0 0 -1
    outer loop
      vertex 9.65 6.55 0
      vertex 11.4193 -5.08421 0
      vertex 9.65 -6.55 0
    endloop
  endfacet
  facet normal 0 0 -1
    outer loop
      vertex 9.65 6.55 0
      vertex 12.2268 -2.5989 0
      vertex 11.4193 -5.08421 0
    endloop
  endfacet
  facet normal 0 0 -1
    outer loop
      vertex -2.93566 -9.03504 0
      vertex 1.30661 -12.4315 0
      vertex -4.75 -8.22724 0
    endloop
  endfacet
  facet normal 0 0 -1
    outer loop
      vertex -0.99302 -9.44796 0
      vertex 3.86271 -11.8882 0
      vertex -2.93566 -9.03504 0
    endloop
  endfacet
  facet normal 0 0 -1
    outer loop
      vertex 4.75 -8.22724 0
      vertex 8.36413 -9.28931 0
      vertex 2.93566 -9.03504 0
    endloop
  endfacet
  facet normal 0 0 -1
    outer loop
      vertex 6.81584 -6.55 0
      vertex 9.65 -6.55 0
      vertex 10.1127 -7.34732 0
    endloop
  endfacet
  facet normal 0 0 -1
    outer loop
      vertex 6.35674 7.05988 0
      vertex 8.36413 9.28931 0
      vertex 6.81584 6.55 0
    endloop
  endfacet
  facet normal 0 0 -1
    outer loop
      vertex -0.99302 9.44796 0
      vertex 1.30661 12.4315 0
      vertex 0.99302 9.44796 0
    endloop
  endfacet
  facet normal 0 0 -1
    outer loop
      vertex -6.35674 7.05988 0
      vertex -3.86271 11.8882 0
      vertex -4.75 8.22724 0
    endloop
  endfacet
  facet normal 0 0 -1
    outer loop
      vertex -6.81584 6.55 0
      vertex -3.86271 11.8882 0
      vertex -6.35674 7.05988 0
    endloop
  endfacet
  facet normal 0 0 -1
    outer loop
      vertex -9.65 6.55 0
      vertex -8.36413 9.28931 0
      vertex -6.25 10.8253 0
    endloop
  endfacet
  facet normal 0 0 -1
    outer loop
      vertex -9.65 6.55 0
      vertex -6.25 10.8253 0
      vertex -3.86271 11.8882 0
    endloop
  endfacet
  facet normal 0 0 -1
    outer loop
      vertex -9.65 6.55 0
      vertex -3.86271 11.8882 0
      vertex -6.81584 6.55 0
    endloop
  endfacet
  facet normal 0 0 -1
    outer loop
      vertex -2.93566 9.03504 0
      vertex 1.30661 12.4315 0
      vertex -0.99302 9.44796 0
    endloop
  endfacet
  facet normal 0 0 -1
    outer loop
      vertex 0.99302 9.44796 0
      vertex 3.86271 11.8882 0
      vertex 2.93566 9.03504 0
    endloop
  endfacet
  facet normal 0 0 -1
    outer loop
      vertex 2.93566 9.03504 0
      vertex 6.25 10.8253 0
      vertex 4.75 8.22724 0
    endloop
  endfacet
  facet normal 0 0 -1
    outer loop
      vertex 4.75 8.22724 0
      vertex 8.36413 9.28931 0
      vertex 6.35674 7.05988 0
    endloop
  endfacet
  facet normal 0 0 -1
    outer loop
      vertex 6.81584 6.55 0
      vertex 10.1127 7.34732 0
      vertex 9.65 6.55 0
    endloop
  endfacet
  facet normal 0 0 -1
    outer loop
      vertex 6.81584 -6.55 0
      vertex 10.1127 -7.34732 0
      vertex 6.35674 -7.05988 0
    endloop
  endfacet
  facet normal 0 0 -1
    outer loop
      vertex 9.65 6.55 0
      vertex 11.4193 5.08421 0
      vertex 12.2268 2.5989 0
    endloop
  endfacet
  facet normal 0 0 -1
    outer loop
      vertex 9.65 6.55 0
      vertex 12.2268 2.5989 0
      vertex 12.5 0 0
    endloop
  endfacet
  facet normal 0 0 -1
    outer loop
      vertex 2.93566 -9.03504 0
      vertex 6.25 -10.8253 0
      vertex 0.99302 -9.44796 0
    endloop
  endfacet
  facet normal 0 0 -1
    outer loop
      vertex 0.99302 -9.44796 0
      vertex 3.86271 -11.8882 0
      vertex -0.99302 -9.44796 0
    endloop
  endfacet
  facet normal 0 0 -1
    outer loop
      vertex 6.35674 -7.05988 0
      vertex 8.36413 -9.28931 0
      vertex 4.75 -8.22724 0
    endloop
  endfacet
  facet normal 0 0 -1
    outer loop
      vertex -6.35674 -7.05988 0
      vertex -1.30661 -12.4315 0
      vertex -3.86271 -11.8882 0
    endloop
  endfacet
  facet normal 0 0 -1
    outer loop
      vertex -6.81584 -6.55 0
      vertex -6.35674 -7.05988 0
      vertex -3.86271 -11.8882 0
    endloop
  endfacet
  facet normal 0 0 -1
    outer loop
      vertex -6.81584 -6.55 0
      vertex -3.86271 -11.8882 0
      vertex -6.25 -10.8253 0
    endloop
  endfacet
  facet normal 0 0 -1
    outer loop
      vertex -4.75 -8.22724 0
      vertex -1.30661 -12.4315 0
      vertex -6.35674 -7.05988 0
    endloop
  endfacet
  facet normal 1 0 0
    outer loop
      vertex -9.65 6.55 0
      vertex -9.65 6.55 4
      vertex -9.65 -6.55 4
    endloop
  endfacet
  facet normal 1 0 0
    outer loop
      vertex -9.65 -6.55 0
      vertex -9.65 6.55 0
      vertex -9.65 -6.55 4
    endloop
  endfacet
  facet normal 0 1 0
    outer loop
      vertex -6.81584 -6.55 2
      vertex -9.65 -6.55 4
      vertex 6.81584 -6.55 2
    endloop
  endfacet
  facet normal 0 1 0
    outer loop
      vertex 9.65 -6.55 4
      vertex 9.65 -6.55 0
      vertex 6.81584 -6.55 2
    endloop
  endfacet
  facet normal 0 1 0
    outer loop
      vertex 9.65 -6.55 4
      vertex 6.81584 -6.55 2
      vertex -9.65 -6.55 4
    endloop
  endfacet
  facet normal 0 1 0
    outer loop
      vertex -9.65 -6.55 4
      vertex -6.81584 -6.55 2
      vertex -6.81584 -6.55 0
    endloop
  endfacet
  facet normal 0 1 0
    outer loop
      vertex -9.65 -6.55 4
      vertex -6.81584 -6.55 0
      vertex -9.65 -6.55 0
    endloop
  endfacet
  facet normal 0 1 0
    outer loop
      vertex 6.81584 -6.55 2
      vertex 9.65 -6.55 0
      vertex 6.81584 -6.55 0
    endloop
  endfacet
  facet normal -1 0 0
    outer loop
      vertex 9.65 6.55 4
      vertex 9.65 6.55 0
      vertex 9.65 -6.55 4
    endloop
  endfacet
  facet normal -1 0 0
    outer loop
      vertex 9.65 -6.55 4
      vertex 9.65 6.55 0
      vertex 9.65 -6.55 0
    endloop
  endfacet
  facet normal 0 -1 0
    outer loop
      vertex 9.65 6.55 4
      vertex -6.81584 6.55 2
      vertex 6.81584 6.55 2
    endloop
  endfacet
  facet normal 0 -1 0
    outer loop
      vertex -6.81584 6.55 0
      vertex -6.81584 6.55 2
      vertex -9.65 6.55 4
    endloop
  endfacet
  facet normal 0 -1 0
    outer loop
      vertex 6.81584 6.55 0
      vertex 9.65 6.55 0
      vertex 6.81584 6.55 2
    endloop
  endfacet
  facet normal 0 -1 0
    outer loop
      vertex 9.65 6.55 0
      vertex 9.65 6.55 4
      vertex 6.81584 6.55 2
    endloop
  endfacet
  facet normal 0 -1 0
    outer loop
      vertex 9.65 6.55 4
      vertex -9.65 6.55 4
      vertex -6.81584 6.55 2
    endloop
  endfacet
  facet normal 0 -1 0
    outer loop
      vertex -9.65 6.55 4
      vertex -9.65 6.55 0
      vertex -6.81584 6.55 0
    endloop
  endfacet
  facet normal 0.743145 -0.66913 0
    outer loop
      vertex -6.35674 7.05988 0
      vertex -6.35674 7.05988 2
      vertex -6.81584 6.55 2
    endloop
  endfacet
  facet normal 0.743145 -0.66913 0
    outer loop
      vertex -6.81584 6.55 0
      vertex -6.35674 7.05988 0
      vertex -6.81584 6.55 2
    endloop
  endfacet
  facet normal 0.587785 -0.809017 0
    outer loop
      vertex -4.75 8.22724 0
      vertex -4.75 8.22724 2
      vertex -6.35674 7.05988 2
    endloop
  endfacet
  facet normal 0.587785 -0.809017 0
    outer loop
      vertex -6.35674 7.05988 0
      vertex -4.75 8.22724 0
      vertex -6.35674 7.05988 2
    endloop
  endfacet
  facet normal 0.406737 -0.913545 0
    outer loop
      vertex -2.93566 9.03504 0
      vertex -2.93566 9.03504 2
      vertex -4.75 8.22724 2
    endloop
  endfacet
  facet normal 0.406737 -0.913545 0
    outer loop
      vertex -4.75 8.22724 0
      vertex -2.93566 9.03504 0
      vertex -4.75 8.22724 2
    endloop
  endfacet
  facet normal 0.207912 -0.978148 0
    outer loop
      vertex -0.99302 9.44796 0
      vertex -0.99302 9.44796 2
      vertex -2.93566 9.03504 2
    endloop
  endfacet
  facet normal 0.207912 -0.978148 0
    outer loop
      vertex -2.93566 9.03504 0
      vertex -0.99302 9.44796 0
      vertex -2.93566 9.03504 2
    endloop
  endfacet
  facet normal 0 -1 0
    outer loop
      vertex 0.99302 9.44796 0
      vertex 0.99302 9.44796 2
      vertex -0.99302 9.44796 2
    endloop
  endfacet
  facet normal 0 -1 0
    outer loop
      vertex -0.99302 9.44796 0
      vertex 0.99302 9.44796 0
      vertex -0.99302 9.44796 2
    endloop
  endfacet
  facet normal -0.207912 -0.978148 0
    outer loop
      vertex 2.93566 9.03504 0
      vertex 2.93566 9.03504 2
      vertex 0.99302 9.44796 2
    endloop
  endfacet
  facet normal -0.207912 -0.978148 0
    outer loop
      vertex 0.99302 9.44796 0
      vertex 2.93566 9.03504 0
      vertex 0.99302 9.44796 2
    endloop
  endfacet
  facet normal -0.406737 -0.913545 0
    outer loop
      vertex 4.75 8.22724 0
      vertex 4.75 8.22724 2
      vertex 2.93566 9.03504 2
    endloop
  endfacet
  facet normal -0.406737 -0.913545 0
    outer loop
      vertex 2.93566 9.03504 0
      vertex 4.75 8.22724 0
      vertex 2.93566 9.03504 2
    endloop
  endfacet
  facet normal -0.587785 -0.809017 0
    outer loop
      vertex 6.35674 7.05988 0
      vertex 6.35674 7.05988 2
      vertex 4.75 8.22724 2
    endloop
  endfacet
  facet normal -0.587785 -0.809017 0
    outer loop
      vertex 4.75 8.22724 0
      vertex 6.35674 7.05988 0
      vertex 4.75 8.22724 2
    endloop
  endfacet
  facet normal -0.743145 -0.66913 0
    outer loop
      vertex 6.81584 6.55 2
      vertex 6.35674 7.05988 2
      vertex 6.81584 6.55 0
    endloop
  endfacet
  facet normal -0.743145 -0.66913 0
    outer loop
      vertex 6.81584 6.55 0
      vertex 6.35674 7.05988 2
      vertex 6.35674 7.05988 0
    endloop
  endfacet
  facet normal -0.743145 0.66913 0
    outer loop
      vertex 6.81584 -6.55 2
      vertex 6.81584 -6.55 0
      vertex 6.35674 -7.05988 2
    endloop
  endfacet
  facet normal -0.743145 0.66913 0
    outer loop
      vertex 6.35674 -7.05988 2
      vertex 6.81584 -6.55 0
      vertex 6.35674 -7.05988 0
    endloop
  endfacet
  facet normal -0.587785 0.809017 0
    outer loop
      vertex 6.35674 -7.05988 2
      vertex 6.35674 -7.05988 0
      vertex 4.75 -8.22724 2
    endloop
  endfacet
  facet normal -0.587785 0.809017 0
    outer loop
      vertex 4.75 -8.22724 2
      vertex 6.35674 -7.05988 0
      vertex 4.75 -8.22724 0
    endloop
  endfacet
  facet normal -0.406737 0.913545 0
    outer loop
      vertex 4.75 -8.22724 2
      vertex 4.75 -8.22724 0
      vertex 2.93566 -9.03504 2
    endloop
  endfacet
  facet normal -0.406737 0.913545 0
    outer loop
      vertex 2.93566 -9.03504 2
      vertex 4.75 -8.22724 0
      vertex 2.93566 -9.03504 0
    endloop
  endfacet
  facet normal -0.207912 0.978148 0
    outer loop
      vertex 2.93566 -9.03504 2
      vertex 2.93566 -9.03504 0
      vertex 0.99302 -9.44796 2
    endloop
  endfacet
  facet normal -0.207912 0.978148 0
    outer loop
      vertex 0.99302 -9.44796 2
      vertex 2.93566 -9.03504 0
      vertex 0.99302 -9.44796 0
    endloop
  endfacet
  facet normal 0 1 0
    outer loop
      vertex 0.99302 -9.44796 2
      vertex 0.99302 -9.44796 0
      vertex -0.99302 -9.44796 2
    endloop
  endfacet
  facet normal 0 1 0
    outer loop
      vertex -0.99302 -9.44796 2
      vertex 0.99302 -9.44796 0
      vertex -0.99302 -9.44796 0
    endloop
  endfacet
  facet normal 0.207912 0.978148 0
    outer loop
      vertex -0.99302 -9.44796 2
      vertex -0.99302 -9.44796 0
      vertex -2.93566 -9.03504 2
    endloop
  endfacet
  facet normal 0.207912 0.978148 0
    outer loop
      vertex -2.93566 -9.03504 2
      vertex -0.99302 -9.44796 0
      vertex -2.93566 -9.03504 0
    endloop
  endfacet
  facet normal 0.406737 0.913545 0
    outer loop
      vertex -2.93566 -9.03504 2
      vertex -2.93566 -9.03504 0
      vertex -4.75 -8.22724 2
    endloop
  endfacet
  facet normal 0.406737 0.913545 0
    outer loop
      vertex -4.75 -8.22724 2
      vertex -2.93566 -9.03504 0
      vertex -4.75 -8.22724 0
    endloop
  endfacet
  facet normal 0.587785 0.809017 0
    outer loop
      vertex -4.75 -8.22724 2
      vertex -4.75 -8.22724 0
      vertex -6.35674 -7.05988 2
    endloop
  endfacet
  facet normal 0.587785 0.809017 0
    outer loop
      vertex -6.35674 -7.05988 2
      vertex -4.75 -8.22724 0
      vertex -6.35674 -7.05988 0
    endloop
  endfacet
  facet normal 0.743145 0.66913 0
    outer loop
      vertex -6.81584 -6.55 2
      vertex -6.35674 -7.05988 2
      vertex -6.35674 -7.05988 0
    endloop
  endfacet
  facet normal 0.743145 0.66913 0
    outer loop
      vertex -6.81584 -6.55 0
      vertex -6.81584 -6.55 2
      vertex -6.35674 -7.05988 0
    endloop
  endfacet
  facet normal 0 0 -1
    outer loop
      vertex -6.81584 -6.55 2
      vertex 6.81584 -6.55 2
      vertex -6.35674 -7.05988 2
    endloop
  endfacet
  facet normal 0 0 -1
    outer loop
      vertex -6.35674 -7.05988 2
      vertex 6.81584 -6.55 2
      vertex 6.35674 -7.05988 2
    endloop
  endfacet
  facet normal 0 0 -1
    outer loop
      vertex -6.35674 -7.05988 2
      vertex 6.35674 -7.05988 2
      vertex 4.75 -8.22724 2
    endloop
  endfacet
  facet normal 0 0 -1
    outer loop
      vertex -6.35674 -7.05988 2
      vertex 4.75 -8.22724 2
      vertex 2.93566 -9.03504 2
    endloop
  endfacet
  facet normal 0 0 -1
    outer loop
      vertex -6.35674 -7.05988 2
      vertex 2.93566 -9.03504 2
      vertex 0.99302 -9.44796 2
    endloop
  endfacet
  facet normal 0 0 -1
    outer loop
      vertex -6.35674 -7.05988 2
      vertex 0.99302 -9.44796 2
      vertex -0.99302 -9.44796 2
    endloop
  endfacet
  facet normal 0 0 -1
    outer loop
      vertex -6.35674 -7.05988 2
      vertex -0.99302 -9.44796 2
      vertex -2.93566 -9.03504 2
    endloop
  endfacet
  facet normal 0 0 -1
    outer loop
      vertex -6.35674 -7.05988 2
      vertex -2.93566 -9.03504 2
      vertex -4.75 -8.22724 2
    endloop
  endfacet
  facet normal 0 0 -1
    outer loop
      vertex -6.81584 6.55 2
      vertex -6.35674 7.05988 2
      vertex 6.81584 6.55 2
    endloop
  endfacet
  facet normal 0 0 -1
    outer loop
      vertex 6.81584 6.55 2
      vertex -6.35674 7.05988 2
      vertex -4.75 8.22724 2
    endloop
  endfacet
  facet normal 0 0 -1
    outer loop
      vertex 6.81584 6.55 2
      vertex -4.75 8.22724 2
      vertex -2.93566 9.03504 2
    endloop
  endfacet
  facet normal 0 0 -1
    outer loop
      vertex 6.81584 6.55 2
      vertex -2.93566 9.03504 2
      vertex -0.99302 9.44796 2
    endloop
  endfacet
  facet normal 0 0 -1
    outer loop
      vertex 6.81584 6.55 2
      vertex -0.99302 9.44796 2
      vertex 0.99302 9.44796 2
    endloop
  endfacet
  facet normal 0 0 -1
    outer loop
      vertex 6.81584 6.55 2
      vertex 0.99302 9.44796 2
      vertex 2.93566 9.03504 2
    endloop
  endfacet
  facet normal 0 0 -1
    outer loop
      vertex 6.81584 6.55 2
      vertex 2.93566 9.03504 2
      vertex 4.75 8.22724 2
    endloop
  endfacet
  facet normal 0 0 -1
    outer loop
      vertex 6.81584 6.55 2
      vertex 4.75 8.22724 2
      vertex 6.35674 7.05988 2
    endloop
  endfacet
endsolid OpenSCAD_Model
